<?xml version="1.0" encoding="UTF-8"?>
<!--Generator: Apple Native CoreSVG 232.5-->
<!DOCTYPE svg
PUBLIC "-//W3C//DTD SVG 1.1//EN"
       "http://www.w3.org/Graphics/SVG/1.1/DTD/svg11.dtd">
<svg version="1.1" xmlns="http://www.w3.org/2000/svg" xmlns:xlink="http://www.w3.org/1999/xlink" width="635.986" height="636.475">
 <g>
  <rect height="636.475" opacity="0" width="635.986" x="0" y="0"/>
  <path d="M317.871 635.986C491.943 635.986 635.986 491.943 635.986 318.115C635.986 144.043 491.699 0 317.627 0C143.799 0 0 144.043 0 318.115C0 491.943 144.043 635.986 317.871 635.986ZM317.871 590.576C166.992 590.576 45.6543 468.994 45.6543 318.115C45.6543 166.992 166.748 45.6543 317.627 45.6543C468.75 45.6543 590.332 166.992 590.332 318.115C590.332 468.994 468.994 590.576 317.871 590.576ZM532.471 524.17L531.738 521.24C514.893 475.83 432.373 424.072 317.871 424.072C203.857 424.072 121.338 475.586 104.004 520.752L103.271 524.17C159.668 580.566 251.709 614.258 318.115 614.258C384.521 614.258 475.098 581.299 532.471 524.17ZM317.871 370.361C378.418 370.85 425.537 319.092 425.537 251.709C425.537 188.232 377.93 135.498 317.871 135.498C257.812 135.498 209.961 188.232 210.205 251.709C210.449 319.092 257.324 369.873 317.871 370.361Z" fill="#000000" fill-opacity="0.85"/>
 </g>
</svg>
